<?xml version="1.0" standalone="no"?><!DOCTYPE svg PUBLIC "-//W3C//DTD SVG 1.1//EN" "http://www.w3.org/Graphics/SVG/1.1/DTD/svg11.dtd"><svg t="1619363371126" class="icon" viewBox="0 0 1024 1024" version="1.1" xmlns="http://www.w3.org/2000/svg" p-id="1609" xmlns:xlink="http://www.w3.org/1999/xlink" width="200" height="200"><defs><style type="text/css"></style></defs><path d="M339.0976 436.736m-99.0208 0a99.0208 99.0208 0 1 0 198.0416 0 99.0208 99.0208 0 1 0-198.0416 0Z" fill="#3370ff" p-id="1610" data-spm-anchor-id="a313x.7781069.0.i0" class="selected"></path><path d="M848.128 144.2816H184.2176c-76.2368 0-138.24 62.0032-138.24 138.24v453.4784c0 76.2368 62.0032 138.24 138.24 138.24h663.9616c76.2368 0 138.24-62.0032 138.24-138.24V282.5216c-0.0512-76.2368-62.0544-138.24-138.2912-138.24z m87.04 591.7696c0 47.9744-39.0656 87.04-87.04 87.04H184.2176c-47.9744 0-87.04-39.0656-87.04-87.04V282.5216c0-47.9744 39.0656-87.04 87.04-87.04h663.9616c47.9744 0 87.04 39.0656 87.04 87.04v453.5296z" fill="#515151" p-id="1611" data-spm-anchor-id="a313x.7781069.0.i5" class=""></path><path d="M419.4816 531.8656c27.0336-22.8864 44.2368-57.0368 44.2368-95.1296 0-68.7104-55.9104-124.6208-124.6208-124.6208S214.4256 368.0256 214.4256 436.736c0 38.0928 17.2032 72.2432 44.2368 95.1296-47.7696 27.8016-79.9744 79.5648-79.9744 138.7008 0 14.1312 11.4688 25.6 25.6 25.6s25.6-11.4688 25.6-25.6c0-60.2112 48.9984-109.2096 109.2096-109.2096s109.2096 48.9984 109.2096 109.2096c0 14.1312 11.4688 25.6 25.6 25.6s25.6-11.4688 25.6-25.6c-0.0512-59.1872-32.256-110.8992-80.0256-138.7008zM265.6256 436.736c0-40.4992 32.9216-73.4208 73.4208-73.4208s73.4208 32.9216 73.4208 73.4208-32.9216 73.4208-73.4208 73.4208-73.4208-32.9216-73.4208-73.4208zM832.6144 378.4704h-222.5664c-14.1312 0-25.6 11.4688-25.6 25.6s11.4688 25.6 25.6 25.6h222.5664c14.1312 0 25.6-11.4688 25.6-25.6s-11.4176-25.6-25.6-25.6zM832.6144 502.4768h-222.5664c-14.1312 0-25.6 11.4688-25.6 25.6s11.4688 25.6 25.6 25.6h222.5664c14.1312 0 25.6-11.4688 25.6-25.6s-11.4176-25.6-25.6-25.6zM832.6144 620.9024h-222.5664c-14.1312 0-25.6 11.4688-25.6 25.6s11.4688 25.6 25.6 25.6h222.5664c14.1312 0 25.6-11.4688 25.6-25.6s-11.4176-25.6-25.6-25.6z" fill="#515151" p-id="1612" data-spm-anchor-id="a313x.7781069.0.i6" class=""></path></svg>