<?xml version="1.0" standalone="no"?><!DOCTYPE svg PUBLIC "-//W3C//DTD SVG 1.1//EN" "http://www.w3.org/Graphics/SVG/1.1/DTD/svg11.dtd"><svg t="1619686278645" class="icon" viewBox="0 0 1024 1024" version="1.1" xmlns="http://www.w3.org/2000/svg" p-id="40923" xmlns:xlink="http://www.w3.org/1999/xlink" width="200" height="200"><defs><style type="text/css"></style></defs><path d="M870.4 136.533333H153.6a68.266667 68.266667 0 0 0-68.266667 68.266667v682.666667a68.266667 68.266667 0 0 0 68.266667 68.266666h716.8a68.266667 68.266667 0 0 0 68.266667-68.266666V204.8a68.266667 68.266667 0 0 0-68.266667-68.266667zM153.6 204.8h716.8v682.666667H153.6V204.8z" fill="#444444" p-id="40924"></path><path d="M904.533333 363.093333a34.133333 34.133333 0 0 1 2.56 68.181334l-2.56 0.085333H119.466667a34.133333 34.133333 0 0 1-2.56-68.164267l2.56-0.1024h785.066666zM324.266667 68.266667a34.133333 34.133333 0 0 1 34.048 31.573333L358.4 102.4v136.533333a34.133333 34.133333 0 0 1-68.181333 2.56L290.133333 238.933333V102.4a34.133333 34.133333 0 0 1 34.133334-34.133333zM699.733333 68.266667a34.133333 34.133333 0 0 1 34.048 31.573333L733.866667 102.4v136.533333a34.133333 34.133333 0 0 1-68.181334 2.56L665.6 238.933333V102.4a34.133333 34.133333 0 0 1 34.133333-34.133333z" fill="#444444" p-id="40925"></path><path d="M546.133333 785.066667h-68.266666V529.066667h34.133333a34.133333 34.133333 0 0 1 34.133333 34.133333v221.866667z" fill="#3370ff" p-id="40926" data-spm-anchor-id="a313x.7781069.0.i4" class="selected"></path></svg>