<svg width="187" height="17" viewBox="0 0 187 17" fill="none" xmlns="http://www.w3.org/2000/svg">
<path d="M13.4816 14.846V16.538H0.899578V14.846H5.90358V0.409999H8.02758V4.91H13.0676V6.602H8.02758V14.846H13.4816ZM20.5881 3.362H18.3561L19.2021 0.409999H21.4341L21.2541 1.022H27.6441V2.714H20.7681L20.5881 3.362ZM17.4201 0.589999L18.1401 4.406H15.9801L15.2601 0.589999H17.4201ZM27.2481 9.176V12.416H27.8241V14.108H27.2481V14.684L26.7621 16.79H24.5841L25.1241 14.432V14.108H18.7521L19.0041 9.176H18.3201V7.484H19.0941L19.2921 3.686H27.2481V7.484H28.0041V9.176H27.2481ZM17.4201 5.162L18.1401 8.978H15.9801L15.2601 5.162H17.4201ZM21.2181 7.484H22.3161L22.0101 5.918H24.1341L24.4401 7.484H25.1241V5.378H21.3261L21.2181 7.484ZM25.1241 9.176H21.1281L20.9661 12.416H22.3161L21.9021 10.256H24.0261L24.4401 12.416H25.1241V9.176ZM15.9801 10.058H18.1221L17.4021 16.79H15.2601L15.9801 10.058ZM36.2445 5.144L32.1045 16.592H29.8005L33.9405 5.144H29.9805V3.452H34.5525L35.4885 0.86H37.7925L36.8565 3.452H42.0405V5.144H36.2445ZM42.3465 16.61H40.0605L36.5865 6.584H38.8725L42.3465 16.61ZM46.357 5.108H44.197V2.282H45.547L45.133 0.409999H47.311L47.725 2.282H49.147L48.733 0.409999H50.911L51.325 2.282H52.279L52.693 0.409999H54.871L54.457 2.282H56.617V5.108H54.457V3.974H46.357V5.108ZM56.797 11.084H51.451V15.008L50.947 16.79H48.643L49.291 14.72V11.084H44.017V9.392H49.291V9.374L52.855 7.268H45.457V5.576H55.375L56.077 7.232L52.477 9.392H56.797V11.084ZM58.5935 0.95L63.7415 0.428V2.12L62.2295 2.282V3.632H63.7415V5.324H62.2295V16.79H60.1055V5.324H58.5935V3.632H60.1055V2.48L58.5935 2.642V0.95ZM64.2275 0.608H70.8335V6.152H64.2275V0.608ZM66.3515 2.3V4.46H68.7095V2.3H66.3515ZM58.8275 6.008H59.9075L59.6555 15.89H58.5755L58.8275 6.008ZM63.5795 6.008L63.7055 14.486H62.6255L62.4995 6.008H63.5795ZM71.1935 14.9V16.592H63.8135V14.9H66.4235V12.236H64.1735V10.544H66.4235V8.816H63.9935V7.124H71.0135V8.816H68.5475V10.544H70.8335V12.236H68.5475V14.9H71.1935ZM85.428 3.074H75.456V11.894L74.916 16.79H72.792L73.332 11.804V1.49H78.606V0.788L80.73 0.428V1.49H85.428V3.074ZM85.23 11.822H83.124L83.646 9.572H81.522V13.766L80.982 16.754H78.786L79.398 13.55V9.572H75.942V7.88H77.598L77.202 6.62H79.326L79.722 7.88H81.774L82.728 5.882H76.572V4.19H83.754L84.978 5.882L83.97 7.88H84.672L85.734 9.554H85.752V9.572L85.23 11.822ZM90.4825 2.012H88.3585V0.95L90.4825 0.409999V2.012ZM93.9385 6.44H91.7965L92.3185 4.406V0.751999H98.6545V4.748H99.7345V6.44H96.5305V2.444H94.4425V4.424L93.9385 6.44ZM91.2925 14.594V16.322L88.3585 16.88V4.28H87.2065V2.588H90.4825V14.756L91.2925 14.594ZM97.3765 16.79L95.7745 13.874L94.0825 16.79H91.6345L94.0105 12.668L92.1025 9.068H94.4965L95.7565 11.444L97.2145 8.636H91.9585V6.944H98.2225L99.6085 8.636L97.5205 12.668L99.8065 16.79H97.3765ZM114.275 6.656H110.963V16.79H108.839V6.656H105.527V4.964H108.839V0.409999H110.963V4.964H114.275V6.656ZM104.789 2.57H102.665V1.094L104.789 0.553999V2.57ZM104.879 14.522L105.995 14.414V16.304L102.755 16.61V5.198H101.819V3.506H104.879V14.522ZM128.599 9.374H123.523V16.79H121.399V9.374H116.179V7.682H121.399V2.696H116.755V1.004H128.257V2.696H123.523V7.682H128.599V9.374ZM120.067 6.89H117.943L117.223 3.47H119.347L120.067 6.89ZM124.855 6.89L125.575 3.47H127.699L126.979 6.89H124.855ZM130.936 6.386V4.694L132.952 0.409999H135.256L133.24 4.694H140.17L139.432 2.03H141.628L142.834 6.386H130.936ZM131.134 7.484H142.42V16.502H131.134V7.484ZM133.258 9.176V14.81H140.296V9.176H133.258Z" fill="white"/>
<path fill-rule="evenodd" clip-rule="evenodd" d="M150 4C148.343 4 147 5.34315 147 7V14C147 15.6569 148.343 17 150 17H184C185.657 17 187 15.6569 187 14V7C187 5.34315 185.657 4 184 4H150ZM150.98 13.66C151.533 13.9667 152.24 14.12 153.1 14.12C153.62 14.12 154.1 14.04 154.54 13.88C154.987 13.72 155.347 13.4633 155.62 13.11C155.9 12.7567 156.04 12.3033 156.04 11.75C156.04 11.37 155.93 11.06 155.71 10.82C155.49 10.5733 155.227 10.3833 154.92 10.25C154.62 10.1167 154.23 9.98 153.75 9.84C153.417 9.74 153.16 9.66 152.98 9.6C152.807 9.53333 152.66 9.45 152.54 9.35C152.42 9.25 152.36 9.12667 152.36 8.98C152.36 8.75333 152.483 8.57667 152.73 8.45C152.983 8.31667 153.333 8.25 153.78 8.25C154.14 8.25 154.42 8.31333 154.62 8.44C154.827 8.56 154.93 8.72667 154.93 8.94C154.93 9 154.92 9.07333 154.9 9.16H156.34C156.373 8.95333 156.39 8.78667 156.39 8.66C156.39 8.11333 156.143 7.70333 155.65 7.43C155.163 7.15667 154.52 7.02 153.72 7.02C153.18 7.02 152.693 7.10333 152.26 7.27C151.833 7.43 151.493 7.67333 151.24 8C150.993 8.32667 150.87 8.72667 150.87 9.2C150.87 9.57333 150.973 9.88 151.18 10.12C151.387 10.36 151.633 10.5433 151.92 10.67C152.213 10.7967 152.593 10.93 153.06 11.07C153.393 11.17 153.657 11.26 153.85 11.34C154.043 11.4133 154.203 11.51 154.33 11.63C154.457 11.7433 154.52 11.8833 154.52 12.05C154.52 12.3033 154.397 12.5067 154.15 12.66C153.91 12.8133 153.523 12.89 152.99 12.89C152.563 12.89 152.233 12.82 152 12.68C151.773 12.5333 151.66 12.3367 151.66 12.09C151.66 12.0433 151.667 11.9867 151.68 11.92C151.693 11.8467 151.703 11.7967 151.71 11.77H150.24C150.187 11.97 150.16 12.1567 150.16 12.33C150.16 12.9033 150.433 13.3467 150.98 13.66ZM159.42 7.14H157.97L156.76 14H158.21L158.72 11.11H161.7L161.19 14H162.64L163.85 7.14H162.4L161.92 9.86H158.94L159.42 7.14ZM165.127 13.59C165.593 13.9433 166.26 14.12 167.127 14.12C168.96 14.12 170.033 13.23 170.347 11.45L171.107 7.14H169.657L168.907 11.38C168.82 11.8733 168.623 12.25 168.317 12.51C168.01 12.7633 167.62 12.89 167.147 12.89C166.307 12.89 165.887 12.5167 165.887 11.77C165.887 11.67 165.9 11.54 165.927 11.38L166.677 7.14H165.227L164.487 11.37C164.447 11.59 164.427 11.8 164.427 12C164.427 12.7 164.66 13.23 165.127 13.59ZM172.254 13.45C172.794 13.8967 173.567 14.12 174.574 14.12C175.3 14.12 175.944 13.9767 176.504 13.69C177.064 13.3967 177.514 12.9833 177.854 12.45C178.194 11.9167 178.414 11.2867 178.514 10.56C178.554 10.28 178.574 9.99667 178.574 9.71C178.574 8.81667 178.3 8.14667 177.754 7.7C177.207 7.24667 176.43 7.02 175.424 7.02C174.344 7.02 173.46 7.33333 172.774 7.96C172.094 8.58667 171.67 9.44667 171.504 10.54C171.464 10.8267 171.444 11.1233 171.444 11.43C171.444 12.33 171.714 13.0033 172.254 13.45ZM176.174 12.32C175.76 12.7 175.22 12.89 174.554 12.89C174.02 12.89 173.617 12.7567 173.344 12.49C173.07 12.2167 172.934 11.8267 172.934 11.32C172.934 11.1467 172.97 10.8467 173.044 10.42C173.157 9.73333 173.417 9.2 173.824 8.82C174.237 8.44 174.774 8.25 175.434 8.25C175.974 8.25 176.38 8.38667 176.654 8.66C176.934 8.93333 177.074 9.32 177.074 9.82C177.074 10.0067 177.037 10.3067 176.964 10.72C176.85 11.4067 176.587 11.94 176.174 12.32ZM179.407 13.72C179.793 13.9867 180.35 14.12 181.077 14.12C181.777 14.12 182.337 13.9467 182.757 13.6C183.183 13.2533 183.457 12.7433 183.577 12.07L184.447 7.14H182.987L182.117 12.05C182.07 12.3167 181.957 12.5267 181.777 12.68C181.597 12.8267 181.36 12.9 181.067 12.9C180.787 12.9 180.587 12.85 180.467 12.75C180.353 12.6433 180.297 12.4767 180.297 12.25C180.297 12.1033 180.33 11.9 180.397 11.64H178.957C178.877 12.0067 178.837 12.31 178.837 12.55C178.837 13.0633 179.027 13.4533 179.407 13.72Z" fill="white"/>
</svg>
