<svg xmlns="http://www.w3.org/2000/svg" width="151.054" height="137.226" viewBox="0 0 151.054 137.226">
  <g id="暂无内容" transform="translate(-910.713 -474.811)" opacity="0.8">
    <path id="路径_2358" data-name="路径 2358" d="M88.646,84h-84A4.666,4.666,0,0,1-.016,79.334V18.685L9.316,0H83.98l9.333,18.666V79.33A4.666,4.666,0,0,1,88.646,84ZM15.084,9.333l-4.666,9.333H82.869L78.2,9.333Z" transform="translate(939.839 501.989)" fill="#e2e5f1"/>
    <path id="联合_24" data-name="联合 24" d="M19856.395,16697.92l8.488-8.482,4.242,4.238-8.486,8.488Zm-28.467-4.742,4.238-4.238,8.486,8.482-4.242,4.242Zm17.6,2.258v-12h6v12Z" transform="translate(-18862.043 -16142.396)" fill="#fff"/>
    <path id="路径_2357" data-name="路径 2357" d="M40.8,48H7.2A7.2,7.2,0,0,1,0,40.8V2.4A2.4,2.4,0,0,1,2.4,0H36a2.4,2.4,0,0,1,2.4,2.4V31.2H48v9.6A7.2,7.2,0,0,1,40.8,48ZM38.4,36v4.8a2.4,2.4,0,1,0,4.8,0V36ZM9.6,12v4.8H28.8V12Zm0,9.6v4.8H28.8V21.6Zm0,9.6V36h12V31.2Z" transform="translate(910.713 570.468) rotate(-30)" fill="#417aff"/>
    <path id="路径_2313" data-name="路径 2313" d="M9.8,0S39.257,11.765,37.04,19.74s-11.788,1.593-7.5-3.221,17.036-1.135,17.832,14.8S40.273,69.242,0,82.548" transform="translate(993.15 509.031) rotate(3)" fill="none" stroke="#c2c8d8" stroke-width="1" stroke-dasharray="2"/>
    <g id="组_9200" data-name="组 9200" transform="translate(1050.893 557.866)">
      <g id="组_9175" data-name="组 9175" transform="translate(0 0)">
        <path id="路径_2292" data-name="路径 2292" d="M35.237,306.175a5.437,5.437,0,1,1,5.437-5.437A5.475,5.475,0,0,1,35.237,306.175Zm0-9.006a3.568,3.568,0,1,0,3.568,3.568A3.59,3.59,0,0,0,35.237,297.169Z" transform="translate(-29.8 -295.3)" fill="#a4bfff"/>
      </g>
    </g>
    <g id="组_9201" data-name="组 9201" transform="translate(929.775 507.927)">
      <g id="组_9179" data-name="组 9179">
        <path id="路径_2294" data-name="路径 2294" d="M673.566,347.632l-8.266-8.266,8.266-8.266,8.266,8.266Zm-5.377-8.266,5.457,5.457,5.457-5.457-5.457-5.457Z" transform="translate(-665.3 -331.1)" fill="#c2c8d8"/>
      </g>
    </g>
    <path id="联合_16" data-name="联合 16" d="M5.619,12.319a1,1,0,0,1-1-1V7.7H1a1,1,0,0,1-1-1V5.618a1,1,0,0,1,1-1H4.619V1a1,1,0,0,1,1-1H6.7a1,1,0,0,1,1,1V4.618h3.619a1,1,0,0,1,1,1V6.7a1,1,0,0,1-1,1H7.7v3.622a1,1,0,0,1-1,1Z" transform="translate(969.254 594.918)" fill="#c2c8d8"/>
    <path id="联合_17" data-name="联合 17" d="M4.556,9.483a1,1,0,0,1-1-1V5.927H1a1,1,0,0,1-1-1V4.555a1,1,0,0,1,1-1H3.556V1a1,1,0,0,1,1-1h.371a1,1,0,0,1,1,1V3.555H8.483a1,1,0,0,1,1,1v.371a1,1,0,0,1-1,1H5.927V8.483a1,1,0,0,1-1,1Z" transform="translate(919.002 486.247)" fill="rgba(65,122,255,0.24)"/>
    <path id="路径_2314" data-name="路径 2314" d="M200.224,278.687a34.04,34.04,0,0,1-8.515,8.675c-2.636,1.916-5.607,3.892-8.892,4.4a12.032,12.032,0,0,1-5.317-.365,25.17,25.17,0,0,1-6.454-3.731c-1.176-.829-2.1-.434-2.983.6-.548.641-.519,2.006-1.022,2.52-.643.665-1.338.545-1.371-.636-.037-1.64,2.326-3.511,3.669-4.015-.74-2.563,1-6.94,2.653-8.844,6.277-7.231,16.922-6.222,24.462-1.84C196.793,275.645,200.705,277.937,200.224,278.687Z" transform="matrix(0.966, 0.259, -0.259, 0.966, 887.474, 182.289)" fill="#697391"/>
    <path id="路径_2316" data-name="路径 2316" d="M15.607,3.018a15.373,15.373,0,0,1-3.846,3.918A9.673,9.673,0,0,1,7.745,8.922a5.433,5.433,0,0,1-2.4-.165A11.369,11.369,0,0,1,2.428,7.072c-.531-.374-.949-.2-1.347.27-.248.29-.234.906-.462,1.138-.29.3-.6.246-.619-.288-.017-.741,1.051-1.586,1.657-1.813a5.388,5.388,0,0,1,1.2-3.994C5.691-.881,10.5-.425,13.9,1.554,14.057,1.644,15.824,2.68,15.607,3.018Z" transform="matrix(0.259, 0.966, -0.966, 0.259, 1039.849, 510.5)" fill="#697391"/>
    <path id="路径_2317" data-name="路径 2317" d="M10.679,2.416A11.635,11.635,0,0,1,8.047,5.553,6.3,6.3,0,0,1,5.3,7.143a3.2,3.2,0,0,1-1.643-.132A7.6,7.6,0,0,1,1.662,5.662c-.363-.3-.649-.157-.922.216C.57,6.11.579,6.6.424,6.789c-.2.24-.414.2-.424-.23-.011-.593.719-1.27,1.134-1.452a4.834,4.834,0,0,1,.82-3.2c1.94-2.615,5.23-2.25,7.56-.665C9.619,1.316,10.828,2.145,10.679,2.416Z" transform="matrix(0.259, 0.966, -0.966, 0.259, 1002.095, 474.811)" fill="rgba(105,115,145,0.5)"/>
    <path id="路径_2318" data-name="路径 2318" d="M19.249,7.36a18.961,18.961,0,0,0-4.744-4.833A11.931,11.931,0,0,0,9.552.078a6.7,6.7,0,0,0-2.962.2A14.022,14.022,0,0,0,3,2.361c-.655.462-1.17.242-1.662-.333C1.028,1.67,1.044.91.764.624.406.253.018.32,0,.978c-.021.914,1.3,1.956,2.044,2.236C1.632,4.643,2.6,7.081,3.522,8.141c3.5,4.028,9.427,3.466,13.627,1.025C17.338,9.055,19.517,7.778,19.249,7.36Z" transform="matrix(0.259, 0.966, -0.966, 0.259, 1026.181, 539.811)" fill="rgba(105,115,145,0.6)"/>
    <path id="路径_2319" data-name="路径 2319" d="M9.033,3.454A8.9,8.9,0,0,0,6.807,1.186,5.6,5.6,0,0,0,4.482.037a3.145,3.145,0,0,0-1.39.1,6.58,6.58,0,0,0-1.687.975C1.1,1.324.856,1.221.626.951.482.784.49.427.358.293.19.119.009.15,0,.459c-.01.429.608.918.959,1.049A3.118,3.118,0,0,0,1.653,3.82c1.641,1.89,4.424,1.626,6.395.481C8.136,4.249,9.159,3.65,9.033,3.454Z" transform="translate(1025.998 581.172) rotate(120)" fill="rgba(105,115,145,0.36)"/>
  </g>
</svg>
