<svg xmlns="http://www.w3.org/2000/svg" xmlns:xlink="http://www.w3.org/1999/xlink" width="149.286" height="142.113" viewBox="0 0 149.286 142.113">
  <defs>
    <clipPath id="clip-path">
      <path id="路径_1850" data-name="路径 1850" d="M140.88,122.88a18,18,0,1,0,18,18A18,18,0,0,0,140.88,122.88Z" transform="translate(-122.88 -122.88)" fill="#417aff"/>
    </clipPath>
  </defs>
  <g id="暂无权限" transform="translate(-909.579 -470.359)" opacity="0.8">
    <g id="编组" transform="translate(938.171 500.938)">
      <g id="分组" transform="translate(-0.001 -0.001)">
        <path id="减去_3" data-name="减去 3" d="M96.154,88.333H3.847A4.045,4.045,0,0,1,0,84.123V19.5H100V84.123A4.045,4.045,0,0,1,96.154,88.333ZM100,16.168H0V4.211A4.046,4.046,0,0,1,3.847,0H96.154A4.045,4.045,0,0,1,100,4.211V16.167ZM12.079,10.139h0L13.535,11.6a1.03,1.03,0,0,0,1.456-1.457L13.535,8.683l1.456-1.456a1.03,1.03,0,1,0-1.456-1.456L12.079,7.227,10.623,5.771A1.03,1.03,0,1,0,9.167,7.227l1.456,1.456L9.167,10.139A1.03,1.03,0,0,0,10.623,11.6l1.455-1.456ZM32.756,5.5a3.09,3.09,0,1,0,3.09,3.09A3.093,3.093,0,0,0,32.756,5.5Zm-10,0a3.09,3.09,0,1,0,3.089,3.09A3.093,3.093,0,0,0,22.756,5.5Z" transform="translate(0 0)" fill="#e2e5f1"/>
      </g>
    </g>
    <g id="组_9200" data-name="组 9200" transform="translate(1046.646 546.4)">
      <g id="组_9175" data-name="组 9175" transform="translate(0 0)">
        <path id="路径_2292" data-name="路径 2292" d="M35.237,306.175a5.437,5.437,0,1,1,5.437-5.437A5.475,5.475,0,0,1,35.237,306.175Zm0-9.006a3.568,3.568,0,1,0,3.568,3.568A3.59,3.59,0,0,0,35.237,297.169Z" transform="translate(-29.8 -295.3)" fill="#a4bfff"/>
      </g>
    </g>
    <g id="组_9201" data-name="组 9201" transform="translate(929.775 507.927)">
      <g id="组_9179" data-name="组 9179">
        <path id="路径_2294" data-name="路径 2294" d="M673.566,347.632l-8.266-8.266,8.266-8.266,8.266,8.266Zm-5.377-8.266,5.457,5.457,5.457-5.457-5.457-5.457Z" transform="translate(-665.3 -331.1)" fill="#c2c8d8"/>
      </g>
    </g>
    <path id="联合_15" data-name="联合 15" d="M4.225,8.6a1,1,0,0,1-1-1V5.374H1a1,1,0,0,1-1-1v-.15a1,1,0,0,1,1-1H3.225V1a1,1,0,0,1,1-1h.15a1,1,0,0,1,1,1V3.224H7.6a1,1,0,0,1,1,1v.15a1,1,0,0,1-1,1H5.375V7.6a1,1,0,0,1-1,1Z" transform="translate(992.57 470.359)" fill="#417aff"/>
    <path id="联合_16" data-name="联合 16" d="M5.619,12.319a1,1,0,0,1-1-1V7.7H1a1,1,0,0,1-1-1V5.618a1,1,0,0,1,1-1H4.619V1a1,1,0,0,1,1-1H6.7a1,1,0,0,1,1,1V4.618h3.619a1,1,0,0,1,1,1V6.7a1,1,0,0,1-1,1H7.7v3.622a1,1,0,0,1-1,1Z" transform="translate(976.255 597.918)" fill="#c2c8d8"/>
    <path id="联合_17" data-name="联合 17" d="M5.04,10.773a1,1,0,0,1-1-1V6.732H1a1,1,0,0,1-1-1V5.039a1,1,0,0,1,1-1H4.04V1a1,1,0,0,1,1-1h.693a1,1,0,0,1,1,1V4.039h3.04a1,1,0,0,1,1,1v.693a1,1,0,0,1-1,1H6.733V9.773a1,1,0,0,1-1,1Z" transform="translate(917.002 490.164)" fill="#f1f3f8"/>
    <path id="路径_2342" data-name="路径 2342" d="M151.334,53.556h3.111A1.556,1.556,0,0,1,156,55.111V73.778a1.556,1.556,0,0,1-1.556,1.556H129.556A1.556,1.556,0,0,1,128,73.778V55.111a1.556,1.556,0,0,1,1.556-1.556h3.111V52a9.333,9.333,0,1,1,18.667,0v1.556ZM140.445,65.583v3.528h3.111V65.583a3.111,3.111,0,1,0-3.111,0Zm7.778-12.028V52a6.222,6.222,0,1,0-12.444,0v1.556h12.444Z" transform="translate(846.17 489.837)" fill="#fff"/>
    <g id="组_9427" data-name="组 9427" transform="translate(693.267 537.308) rotate(-30)">
      <path id="路径_2343" data-name="路径 2343" d="M214.8,143.338a33.985,33.985,0,0,1-20.524-7.346,1.036,1.036,0,0,0-1.332,0,33.966,33.966,0,0,1-20.524,7.346,1.032,1.032,0,0,0-1.022,1.022v20.957c0,9.382,14.077,20.433,22.205,20.433,7.908,0,22.2-11.057,22.2-20.433V144.36A1.021,1.021,0,0,0,214.8,143.338Zm-15.053,23.2a1.038,1.038,0,0,1,1.035,1.035v2.483a1.038,1.038,0,0,1-1.035,1.035h-4v4.766a1.038,1.038,0,0,1-1.035,1.035h-2.483a1.038,1.038,0,0,1-1.035-1.035V163.073a8.5,8.5,0,1,1,4.552.09v3.382h4Z" transform="translate(0)" fill="#417aff"/>
      <path id="路径_2344" data-name="路径 2344" d="M457.421,375.122m-3.921,0a3.922,3.922,0,1,0,3.921-3.921A3.921,3.921,0,0,0,453.5,375.122Z" transform="translate(-263.81 -220.19)" fill="#417aff"/>
    </g>
    <g id="头像" transform="translate(847.909 421.345) rotate(-20)">
      <path id="减去_7" data-name="减去 7" d="M18,36A18,18,0,0,1,5.271,5.271,18,18,0,1,1,30.726,30.729,17.879,17.879,0,0,1,18,36ZM10.972,16.307a1.111,1.111,0,0,0,.055,2.221H17.2a1.111,1.111,0,0,0-.055-2.221H10.972Zm6.247-5.383a1.946,1.946,0,1,0,1.949,1.944A1.946,1.946,0,0,0,17.219,10.924Zm-6.252,0a1.946,1.946,0,1,0,1.948,1.944A1.946,1.946,0,0,0,10.967,10.924Z" transform="translate(122.883 122.881)" fill="#697391"/>
      <g id="蒙版组_4" data-name="蒙版组 4" transform="translate(122.88 122.88)" clip-path="url(#clip-path)">
        <ellipse id="椭圆_6" data-name="椭圆 6" cx="12.857" cy="12.857" rx="12.857" ry="12.857" transform="translate(-11.571 -2.572)" fill="#fff" opacity="0.16"/>
        <ellipse id="椭圆_5" data-name="椭圆 5" cx="7.714" cy="7.714" rx="7.714" ry="7.714" transform="translate(23.143 20.571)" fill="#2a3a60" opacity="0.16"/>
      </g>
    </g>
    <path id="路径_2345" data-name="路径 2345" d="M51.209,2.512c5.352,1.592,8.849,3.936,8.849,6.531,0,5.088-13.444,9.214-30.029,9.214S0,14.132,0,9.043C0,6.275,3.979,3.792,10.55,2.031" transform="matrix(0.839, -0.545, 0.545, 0.839, 997.861, 513.795)" fill="none" stroke="#c2c8d8" stroke-width="1" stroke-dasharray="2 2"/>
  </g>
</svg>
