<svg width="48" height="48" viewBox="0 0 48 48" fill="none" xmlns="http://www.w3.org/2000/svg">
<path fill-rule="evenodd" clip-rule="evenodd" d="M2.95652 10H30.3478C31.3793 10 32.2243 10.7981 32.299 11.8105L32.3043 11.9565V39.3478C32.3043 40.3793 31.5062 41.2243 30.4938 41.299L30.3478 41.3043H2.95652C1.92508 41.3043 1.08006 40.5062 1.00537 39.4938L1 39.3478V11.9565C1 10.9251 1.79814 10.0801 2.8105 10.0054L2.95652 10H30.3478H2.95652ZM46 17.3687V33.9358C46 35.4566 44.175 36.3959 42.7405 35.6135L35.2391 31.5218V19.7827L42.7405 15.691C44.175 14.9086 46 15.8479 46 17.3687ZM11.7608 17.8267C13.3817 17.8267 14.6956 19.1406 14.6956 20.7614C14.6956 22.3823 13.3817 23.6962 11.7608 23.6962C10.14 23.6962 8.82605 22.3823 8.82605 20.7614C8.82605 19.1406 10.14 17.8267 11.7608 17.8267Z" fill="white"/>
</svg>
