<svg width="48" height="48" viewBox="0 0 48 48" fill="none" xmlns="http://www.w3.org/2000/svg">
<circle cx="24" cy="24" r="24" fill="#F53F3F"/>
<path d="M8.92371 20.2738C11.101 18.0965 16.8632 16.7329 23.945 16.7329C28.3876 16.7329 32.4564 17.2827 35.3814 18.2724C38.3505 19.2841 39.978 20.6917 39.978 22.2532V25.97L40 25.992C40 26.036 39.978 26.08 39.978 26.146C39.89 26.7398 39.6261 27.2676 39.2082 27.6855C38.6364 28.2573 37.8447 28.5432 37.0529 28.4333L32.3244 27.8834C30.9388 27.7515 29.9491 26.6518 29.9491 25.2662L29.8172 22.825L29.6632 22.781C27.5739 22.2752 25.6825 22.0333 23.879 22.0333C22.0756 22.0333 20.1842 22.2752 18.0948 22.781L17.9629 22.825V25.2882C17.9629 26.014 17.699 26.6738 17.1931 27.1577C16.7533 27.5975 16.2034 27.8394 15.5876 27.9054L10.8811 28.4333H10.6172C9.9354 28.4552 9.29759 28.2133 8.81375 27.7515C8.28591 27.2676 8 26.5638 8 25.8161V22.1872C8.02199 21.5054 8.3299 20.8676 8.92371 20.2738Z" fill="white"/>
</svg>
