<svg width="48" height="48" viewBox="0 0 48 48" fill="none" xmlns="http://www.w3.org/2000/svg">
<path fill-rule="evenodd" clip-rule="evenodd" d="M11.1591 21.4918C11.1374 20.9946 10.7851 20.6045 10.3578 20.6045L8.73143 20.6047L8.61953 20.6169C8.22308 20.6925 7.92947 21.104 7.94864 21.5829L7.97204 22.0193C8.553 31.0671 14.6604 37.5766 22.3734 38.4665L22.3692 38.5583V40.9619H18.2045C17.8505 40.9619 17.5635 41.2489 17.5635 41.603V43.5261C17.5635 43.8802 17.8505 44.1672 18.2045 44.1672H29.7434C30.0975 44.1672 30.3845 43.8802 30.3845 43.5261V41.603C30.3845 41.2489 30.0975 40.9619 29.7434 40.9619H25.5785L25.5776 38.5119L25.5745 38.4665C27.0403 38.2974 28.4482 37.9245 29.7711 37.3695L26.8482 34.4861C25.9241 34.7049 24.9621 34.8189 23.9739 34.8189C17.1881 34.8189 11.6319 29.4278 11.1676 21.6588L11.1591 21.4918ZM39.9978 21.6195C39.8903 23.9606 39.4132 26.1395 38.6333 28.1027L36.0691 25.5733C36.4294 24.4315 36.6667 23.2076 36.763 21.9154L36.7829 21.6127C36.7851 21.5753 36.7871 21.5347 36.7891 21.4908C36.8112 20.994 37.1634 20.6045 37.5903 20.6045H39.198C39.6411 20.6045 40.0003 21.0231 40.0003 21.5394L39.9978 21.6195ZM33.5899 21.7053C33.5899 22.159 33.5607 22.6055 33.5041 23.0431L17.0885 6.85016C18.835 4.99244 21.2747 3.83887 23.9742 3.83887C29.2848 3.83887 33.5899 8.30344 33.5899 13.8108V21.7053ZM23.9742 31.6772C18.8157 31.6772 14.606 27.4649 14.3689 22.1761L24.0006 31.6772L23.9742 31.6772ZM42.924 39.0551L8.57405 4.70514C8.21198 4.34308 7.62495 4.34308 7.26289 4.70514L5.95173 6.0163C5.58966 6.37837 5.58966 6.9654 5.95173 7.32746L40.3017 41.6774C40.6637 42.0395 41.2508 42.0395 41.6128 41.6774L42.924 40.3662C43.286 40.0042 43.286 39.4171 42.924 39.0551Z" fill="#F53F3F"/>
</svg>
