<?xml version="1.0" standalone="no"?><!DOCTYPE svg PUBLIC "-//W3C//DTD SVG 1.1//EN" "http://www.w3.org/Graphics/SVG/1.1/DTD/svg11.dtd"><svg t="1619510235348" class="icon" viewBox="0 0 1024 1024" version="1.1" xmlns="http://www.w3.org/2000/svg" p-id="1615" xmlns:xlink="http://www.w3.org/1999/xlink" width="400" height="400"><defs><style type="text/css"></style></defs><path d="M510.567403 63.852903c-246.304387 0-446.663336 200.358949-446.663336 446.663336 0 246.304387 200.358949 446.663336 446.663336 446.663336 246.304387 0 446.765664-200.358949 446.765664-446.663336C957.230738 264.211852 756.87179 63.852903 510.567403 63.852903L510.567403 63.852903zM787.979614 386.084941 454.593784 719.573099c-7.981613 7.981613-20.977316 7.981613-28.958929 0l-43.694214-43.694214c0 0 0 0 0 0L237.145998 531.084241c-7.981613-7.981613-7.981613-20.977316 0-28.958929l43.694214-43.694214c7.981613-7.981613 20.977316-7.981613 28.958929 0L440.063156 588.592785 715.326471 313.329469c7.981613-7.981613 20.977316-7.981613 29.061257 0L787.979614 357.126012C796.063556 365.107625 796.063556 378.103328 787.979614 386.084941L787.979614 386.084941z" p-id="1616" data-spm-anchor-id="a313x.7781069.0.i6" class="selected" fill="#00B42A"></path></svg>