<svg width="16" height="14" viewBox="0 0 16 14" fill="none" xmlns="http://www.w3.org/2000/svg">
<path fill-rule="evenodd" clip-rule="evenodd" d="M15.2 1.63108C15.2 1.01744 14.7026 0.519974 14.0889 0.519974H1.91116C1.29751 0.519974 0.800049 1.01744 0.800049 1.63108V12.3689C0.800049 12.9825 1.29751 13.48 1.91116 13.48H14.0889C14.7026 13.48 15.2 12.9825 15.2 12.3689V1.63108ZM7.84069 3.46743C7.86734 3.27011 8.04448 3.13027 8.23998 3.15222L8.88361 3.22449C9.08269 3.24685 9.22617 3.42837 9.20409 3.62993L9.20296 3.63921L8.2708 10.5404C8.24414 10.7377 8.067 10.8775 7.8715 10.8556L7.22787 10.7833C7.0288 10.7609 6.88531 10.5794 6.90739 10.3779L6.90852 10.3686L7.84069 3.46743ZM4.98827 4.9799C5.12604 4.83951 5.34892 4.83493 5.49221 4.96954L5.94717 5.39698C6.094 5.53492 6.10258 5.76725 5.95978 5.92289L4.70855 7.21833L5.95978 8.51377C6.09982 8.65876 6.09726 8.89124 5.94717 9.03968L5.49221 9.46712C5.34892 9.60173 5.12604 9.59715 4.98827 9.45676L3.04559 7.47715C2.90505 7.33394 2.90505 7.10272 3.04559 6.95951L4.98827 4.9799ZM11.0091 4.9799C10.8713 4.83951 10.6484 4.83493 10.5051 4.96954L10.0502 5.39698C9.90007 5.54542 9.89751 5.7779 10.0376 5.92289L11.2888 7.21833L10.0376 8.51377L10.031 8.52075C9.89475 8.6694 9.90334 8.90174 10.0502 9.03968L10.5051 9.46712C10.6484 9.60173 10.8713 9.59715 11.0091 9.45676L12.9517 7.47715C13.0923 7.33394 13.0923 7.10272 12.9517 6.95951L11.0091 4.9799Z" fill="#F53F3F"/>
</svg>
