<?xml version="1.0" standalone="no"?><!DOCTYPE svg PUBLIC "-//W3C//DTD SVG 1.1//EN" "http://www.w3.org/Graphics/SVG/1.1/DTD/svg11.dtd"><svg t="1619510194115" class="icon" viewBox="0 0 1024 1024" version="1.1" xmlns="http://www.w3.org/2000/svg" p-id="1434" xmlns:xlink="http://www.w3.org/1999/xlink" width="400" height="400"><defs><style type="text/css"></style></defs><path d="M510.567403 957.179574C263.853702 957.179574 63.904067 757.229939 63.904067 510.516239S263.853702 63.852903 510.567403 63.852903c246.7137 0 446.663336 199.949635 446.663336 446.663336S757.281103 957.179574 510.567403 957.179574L510.567403 957.179574zM715.4288 380.252223c8.390926-8.390926 8.390926-22.0006 0-30.391526l-45.638453-45.638453c-8.390926-8.390926-22.0006-8.390926-30.391526 0L510.158089 433.462976 380.917358 304.222244c-8.390926-8.390926-22.0006-8.390926-30.391526 0l-45.638453 45.638453c-8.390926 8.390926-8.390926 22.0006 0 30.391526l129.240731 129.240731L304.887379 638.733686c-8.390926 8.390926-8.390926 22.0006 0 30.391526l45.638453 45.638453c8.390926 8.390926 22.0006 8.390926 30.391526 0l129.240731-129.240731 129.240731 129.240731c8.390926 8.390926 22.0006 8.390926 30.391526 0l45.638453-45.638453c8.390926-8.390926 8.390926-22.0006 0-30.391526L586.188068 509.492955 715.4288 380.252223 715.4288 380.252223z" p-id="1435" data-spm-anchor-id="a313x.7781069.0.i2" class="selected" fill="#f54a45"></path></svg>