<?xml version="1.0" standalone="no"?><!DOCTYPE svg PUBLIC "-//W3C//DTD SVG 1.1//EN" "http://www.w3.org/Graphics/SVG/1.1/DTD/svg11.dtd"><svg t="1616493640267" class="icon" viewBox="0 0 1024 1024" version="1.1" xmlns="http://www.w3.org/2000/svg" p-id="5411" xmlns:xlink="http://www.w3.org/1999/xlink" width="400" height="400"><defs><style type="text/css"></style></defs><path d="M578.56 133.12H69.12c-16.896 0-30.72 13.824-30.72 30.72v60.00128c0 16.896 13.824 30.72 30.72 30.72h509.44c16.896 0 30.72-13.824 30.72-30.72V163.84c0-16.896-13.824-30.72-30.72-30.72zM69.12 559.01696h414.72c16.896 0 30.72-13.824 30.72-30.72v-60.00128c0-16.896-13.824-30.72-30.72-30.72H69.12c-16.896 0-30.72 13.824-30.72 30.72v60.00128c0 16.896 13.824 30.72 30.72 30.72zM578.56 743.84128H69.12c-16.896 0-30.72 13.824-30.72 30.72V834.56c0 16.896 13.824 30.72 30.72 30.72h509.44c16.896 0 30.72-13.824 30.72-30.72v-60.00128c0-16.896-13.824-30.71744-30.72-30.71744zM923.2384 241.30048l-274.83392 215.90016c-24.86016 19.53024-24.86016 62.66368 0 82.19392l274.83392 215.90016c27.77088 21.81632 64.9216-1.7024 64.9216-41.09568V282.39872c0-39.39584-37.15072-62.912-64.9216-41.09824z" p-id="5412" fill="#53a8ff"></path></svg>