<?xml version="1.0" standalone="no"?><!DOCTYPE svg PUBLIC "-//W3C//DTD SVG 1.1//EN" "http://www.w3.org/Graphics/SVG/1.1/DTD/svg11.dtd"><svg t="1616986256372" class="icon" viewBox="0 0 1024 1024" version="1.1" xmlns="http://www.w3.org/2000/svg" p-id="2069" xmlns:xlink="http://www.w3.org/1999/xlink" width="400" height="400"><defs><style type="text/css"></style></defs><path d="M251.690667 855.466667A429.056 429.056 0 0 0 512 942.933333c97.792 0 187.989333-32.597333 260.309333-87.466666a260.266667 260.266667 0 1 0-520.661333 0z m-70.485334-67.242667a337.621333 337.621333 0 0 1 196.394667-244.053333 209.066667 209.066667 0 1 1 268.8 0 337.621333 337.621333 0 0 1 196.394667 244.053333A429.226667 429.226667 0 0 0 942.933333 512c0-237.994667-192.938667-430.933333-430.933333-430.933333C274.005333 81.066667 81.066667 274.005333 81.066667 512c0 105.088 37.632 201.386667 100.138666 276.224zM512 1019.733333C231.594667 1019.733333 4.266667 792.405333 4.266667 512S231.594667 4.266667 512 4.266667 1019.733333 231.594667 1019.733333 512 792.405333 1019.733333 512 1019.733333z m0-503.466666a132.266667 132.266667 0 1 0 0-264.533334 132.266667 132.266667 0 0 0 0 264.533334z" fill="#ffffff" p-id="2070" data-spm-anchor-id="a313x.7781069.0.i0" class="selected"></path></svg>