<?xml version="1.0" standalone="no"?><!DOCTYPE svg PUBLIC "-//W3C//DTD SVG 1.1//EN" "http://www.w3.org/Graphics/SVG/1.1/DTD/svg11.dtd"><svg t="1610381937984" class="icon" viewBox="0 0 1024 1024" version="1.1" xmlns="http://www.w3.org/2000/svg" p-id="1327" xmlns:xlink="http://www.w3.org/1999/xlink" width="400" height="400"><defs><style type="text/css"></style></defs><path d="M605.525333 972.970667h-183.0912c-178.0736 0-318.805333 0-318.805333-97.826134v-17.749333c0-172.612267 143.018667-313.0368 318.805333-313.0368h183.125334c175.650133 0 318.634667 140.424533 318.634666 313.002667v17.8176c-0.034133 97.792-147.6608 97.792-318.634666 97.792z m-183.0912-358.8096c-137.250133 0-248.968533 109.124267-248.968533 243.2v17.8176c0 28.023467 168.1408 28.023467 248.968533 28.023466h183.125334c61.5424 0 248.832 0 248.832-27.989333v-17.851733c0-134.075733-111.616-243.2-248.832-243.2h-183.125334z m82.295467-71.7824c-140.356267 0-254.600533-112.264533-254.600533-250.197334 0-137.898667 114.244267-250.1632 254.634666-250.1632 140.356267 0 254.5664 112.2304 254.5664 250.197334s-114.210133 250.197333-254.600533 250.197333zM320 292.181333c0 99.464533 82.909867 180.394667 184.797867 180.394667s184.763733-80.896 184.763733-180.360533c0-99.464533-82.875733-180.360533-184.763733-180.360534-101.888 0-184.797867 80.930133-184.797867 180.360534z" p-id="1328" fill="#1296db"></path></svg>