<?xml version="1.0" standalone="no"?><!DOCTYPE svg PUBLIC "-//W3C//DTD SVG 1.1//EN" "http://www.w3.org/Graphics/SVG/1.1/DTD/svg11.dtd"><svg t="1610381927003" class="icon" viewBox="0 0 1024 1024" version="1.1" xmlns="http://www.w3.org/2000/svg" p-id="1029" xmlns:xlink="http://www.w3.org/1999/xlink" width="400" height="400"><defs><style type="text/css"></style></defs><path d="M807.936 336.384h-12.288a278.971733 278.971733 0 0 0-81.92-176.64c-53.76-53.248-124.416-82.944-199.168-82.944-147.968 0-269.312 114.688-280.576 259.072h-12.288c-78.848 0-143.36 64.512-143.36 143.36v327.168c0 78.848 64.512 143.36 143.36 143.36H807.936c78.848 0 143.36-64.512 143.36-143.36v-326.656c0-79.36-64.512-143.36-143.36-143.36zM514.56 158.72c53.248 0 102.912 20.992 140.8 58.88a195.959467 195.959467 0 0 1 57.344 118.784H315.904c11.264-99.84 96.256-177.664 198.656-177.664zM869.376 806.4c0 33.792-27.648 61.44-61.44 61.44H221.696c-33.792 0-61.44-27.648-61.44-61.44v-326.656c0-33.792 27.648-61.44 61.44-61.44h586.752c33.792 0 61.44 27.648 61.44 61.44v326.656h-0.512z" p-id="1030" fill="#1296db"></path><path d="M514.56 507.904c-22.528 0-40.96 18.432-40.96 40.96v158.72c0 22.528 18.432 40.96 40.96 40.96 22.528 0 40.96-18.432 40.96-40.96v-158.72c0-22.528-18.432-40.96-40.96-40.96z" p-id="1031" fill="#1296db"></path></svg>