<svg width="48" height="50" viewBox="0 0 48 50" fill="none" xmlns="http://www.w3.org/2000/svg">
<path fill-rule="evenodd" clip-rule="evenodd" d="M39.2388 41.9469L3.06298 5.8866C2.67975 5.5046 2.05842 5.5046 1.6752 5.8866L0.287419 7.26995C-0.0958062 7.65195 -0.0958062 8.27129 0.287419 8.65329L36.4633 44.7136C36.8465 45.0956 37.4678 45.0956 37.851 44.7136L39.2388 43.3302C39.6221 42.9482 39.6221 42.3289 39.2388 41.9469ZM1 39.3452V16.1476L26.1113 41.3016H2.9565C1.92507 41.3016 1.08006 40.5035 1.00537 39.4912L1 39.3452ZM35.2393 31.4565L35.3781 31.5956L42.7406 35.6112C44.1751 36.3936 46 35.4543 46 33.9336V17.3681C46 15.8474 44.1751 14.9081 42.7406 15.6905L35.2393 19.7818V31.4565ZM13.8191 10L32.3041 28.5164V11.9563L32.2987 11.8103C32.224 10.7981 31.379 10 30.3476 10H13.8191Z" fill="#F53F3F"/>
</svg>
